<svg width="39" height="50" viewBox="0 0 39 50" fill="none" xmlns="http://www.w3.org/2000/svg">
<path d="M23.5 24.4499L22.9 24.6499C23.1 24.7499 23.4 24.8499 23.7 24.8499H23.8H23.9H32.4C32.5 24.6499 32.6 24.3499 32.7 24.1499H24.2C24 24.2499 23.8 24.3499 23.5 24.4499Z" fill="white"/>
<path d="M14.1 24.8499C14.4 24.8499 14.7 24.7499 15 24.6499L14.4 24.4499C14.1 24.3499 13.9 24.2499 13.7 24.1499H5.1C5.2 24.3499 5.3 24.6499 5.4 24.8499H14H14.1Z" fill="white"/>
<path d="M24 25.45C23.5 25.75 22.9 25.8499 22.3 25.8499C22.2 25.8499 22.2 25.8499 22.1 25.8499C21.7 26.0499 21.4 26.15 21 26.15H31.8C31.9 25.95 32 25.65 32.1 25.45H24Z" fill="white"/>
<path d="M15.7 25.8499C15.6 25.8499 15.6 25.8499 15.5 25.8499C14.9 25.8499 14.3 25.75 13.8 25.45H5.6C5.7 25.65 5.8 25.95 5.9 26.15H16.8C16.5 26.15 16.1 26.0499 15.7 25.8499Z" fill="white"/>
<path d="M2.7 19.5499C2.3 19.65 2 19.85 1.8 20.15C1.1 21.25 1.7 23.5499 2.1 25.3499C2.3 26.0499 2.4 26.65 2.5 27.0499C2.5 27.15 2.5 27.25 2.5 27.25C2.6 27.75 2.6 28.3499 2.5 28.8499V28.95H2.6C3.1 29.15 3.6 29.4499 4 29.8499L4.1 30.15C4.5 30.45 4.9 30.8499 5.4 31.3499C6.7 32.6499 8.4 34.15 9.7 34.15H9.8C10.2 34.15 10.6 33.95 10.8 33.65C10.7 34.05 10.7 34.3499 10.9 34.75C11.5 35.95 13.7 36.65 15.5 37.15C16.1 37.35 16.7 37.55 17.2 37.65L17.4 37.75C17.9 37.95 18.4 38.1499 18.8 38.5499L18.9 38.65L19 38.5499C19.4 38.25 19.9 37.95 20.4 37.75L20.6 37.65C21 37.45 21.6 37.25 22.3 37.15C24.1 36.65 26.3 35.95 26.9 34.75C27.1 34.45 27.1 34.05 27 33.65C27.3 33.95 27.6 34.0499 28 34.0499H28.1C29.4 34.0499 31.1 32.45 32.4 31.25C32.9 30.75 33.3 30.3499 33.7 30.0499L33.9 29.8499C34.3 29.4499 34.8 29.15 35.3 28.95H35.4V28.8499C35.3 28.3499 35.3 27.75 35.4 27.25C35.4 27.15 35.4 27.05 35.4 26.95C35.5 26.45 35.6 25.85 35.8 25.25C36.2 23.45 36.8 21.15 36 20.0499C35.8 19.75 35.5 19.55 35.1 19.45C35.5 19.35 35.8 19.15 36 18.85C36.7 17.75 36.2 15.45 35.8 13.65C35.6 12.95 35.5 12.35 35.4 11.95C35.4 11.85 35.4 11.75 35.4 11.65C35.3 11.15 35.3 10.55 35.4 10.05V9.94995H35.3C34.8 9.74995 34.3 9.44995 33.9 9.04995L33.7 8.84995C33.3 8.54995 32.9 8.14995 32.4 7.64995C31.1 6.34995 29.4 4.84995 28.1 4.84995H28C27.6 4.84995 27.3 5.04995 27 5.34995C27.1 4.94995 27.1 4.64995 26.9 4.24995C26.2 3.14995 24 2.44995 22.2 1.94995C21.6 1.74995 21 1.54995 20.5 1.44995L20.3 1.34995C19.8 1.14995 19.3 0.949952 18.9 0.549952L18.8 0.449951L18.7 0.549952C18.3 0.849952 17.8 1.14995 17.3 1.34995L17.1 1.44995C16.7 1.64995 16.1 1.84995 15.4 1.94995C13.7 2.44995 11.4 3.14995 10.8 4.34995C10.6 4.64995 10.6 5.04995 10.7 5.44995C10.4 5.14995 10.1 5.04995 9.7 5.04995C8.4 4.94995 6.7 6.54995 5.3 7.84995C4.8 8.34995 4.4 8.74995 4 9.04995L3.8 9.24995C3.4 9.64995 2.9 9.94995 2.4 10.15V10.25C2.5 10.75 2.5 11.35 2.4 11.85C2.4 11.95 2.4 12.05 2.4 12.05C2.3 12.55 2.2 13.15 2 13.75C1.6 15.55 1 17.85 1.8 18.95C2.1 19.25 2.4 19.4499 2.7 19.5499ZM18.9 3.54995C27.7 3.54995 34.9 10.65 34.9 19.45C34.9 28.25 27.8 35.45 19 35.45C10.2 35.45 3 28.3499 3 19.5499C3 19.5499 3 19.55 3 19.45C3 10.75 10.1 3.64995 18.9 3.54995Z" fill="white"/>
<path d="M13.1 32.95H24.7C25.2 32.75 25.7 32.45 26.1 32.25H11.7C12.2 32.45 12.6 32.75 13.1 32.95Z" fill="white"/>
<path d="M18.9 34.1498C20.3 34.1498 21.6 33.9498 23 33.5498H14.9C16.2 33.9498 17.5 34.1498 18.9 34.1498Z" fill="white"/>
<path d="M22.4 19.5499C22.2 19.4499 21.9 19.3499 21.6 19.3499C21.4 19.3499 21.3 19.3499 21.1 19.4499C20.6 19.5499 20.2 19.9499 20.1 20.4499C20.3 20.6499 20.5 20.8499 20.7 21.0499C21.2 21.3499 21.5 21.8499 21.6 22.4499C21.6 22.7499 21.6 22.9499 21.5 23.2499C21.3 23.7499 20.9 24.0499 20.4 24.2499C21.3 24.3499 22.3 24.0499 23 23.4499C23.3 23.1499 23.5 22.6499 23.4 22.2499C23.3 21.8499 23.1 21.5499 22.9 21.2499C22.6 20.6499 22.3 20.1499 22.4 19.5499Z" fill="white"/>
<path d="M24.1 19.8499C23.8 19.8499 23.6 19.8499 23.3 19.9499C23.1 20.0499 22.9 20.1499 22.7 20.3499C22.8 20.5499 22.9 20.7499 23.1 20.9499C23.4 21.2499 23.6 21.6499 23.7 22.1499C23.8 22.6499 23.6 23.1499 23.2 23.5499C22.6 24.0499 21.9 24.3499 21.1 24.4499H21.3C22.5 24.5499 23.6 24.2499 24.6 23.5499C25 23.2499 25.2 22.7499 25.2 22.2499C25.2 21.9499 25 21.6499 24.8 21.3499C24.5 20.9499 24.3 20.5499 24.6 20.0499C24.4 19.9499 24.3 19.8499 24.1 19.8499Z" fill="white"/>
<path d="M21.3 23.1498C21.4 22.9498 21.4 22.7498 21.4 22.4498C21.3 21.9498 21 21.5498 20.6 21.2498C20.2 20.8498 19.8 20.3498 19.5 19.8498V19.7498C19.3 19.3498 19.2 19.0498 18.9 19.0498C18.6 19.0498 18.5 19.3498 18.3 19.7498C18 20.3498 17.6 20.8498 17.1 21.2498C16.7 21.5498 16.4 21.9498 16.4 22.4498C16.4 22.6498 16.4 22.8498 16.5 23.1498C16.8 23.8498 17.9 24.2498 18.8 24.2498H18.9C19.9 24.2498 21 23.8498 21.3 23.1498Z" fill="white"/>
<path d="M14.4 22.15C14.3 22.65 14.5 23.05 14.8 23.35C15.5 23.95 16.5 24.25 17.4 24.15C16.9 23.95 16.5 23.65 16.3 23.15C16.2 22.95 16.2 22.65 16.2 22.35C16.3 21.75 16.6 21.25 17.1 20.95C17.3 20.75 17.5 20.55 17.7 20.35C17.6 19.85 17.2 19.45 16.7 19.35C16.5 19.35 16.4 19.25 16.2 19.25C15.9 19.25 15.7 19.25 15.4 19.45C15.6 20.05 15.3 20.55 14.9 20.95C14.7 21.35 14.5 21.75 14.4 22.15Z" fill="white"/>
<path d="M12.6 22.15C12.6 22.65 12.8 23.15 13.2 23.45C14.2 24.15 15.3 24.45 16.5 24.35H16.7C15.9 24.35 15.2 24.05 14.6 23.45C14.2 23.05 14.1 22.55 14.1 22.05C14.2 21.65 14.4 21.25 14.7 20.85C14.8 20.65 15 20.45 15.1 20.25C14.9 20.05 14.7 19.95 14.5 19.85C14.3 19.75 14 19.75 13.7 19.75C13.5 19.75 13.4 19.75 13.2 19.85C13.4 20.25 13.3 20.85 13 21.15C12.8 21.45 12.7 21.75 12.6 22.15Z" fill="white"/>
<path d="M16 25.0498L16.1 24.9498C16.2 24.8498 16.2 24.8498 16.3 24.7498L16.4 24.6498C16.1 24.6498 15.8 24.6498 15.5 24.5498C15.5 24.5498 15.5 24.5498 15.4 24.5498L15.3 24.6498C15.1 25.0498 14.6 25.2498 14.1 25.1498C14.6 25.3498 15.1 25.4498 15.6 25.4498C15.7 25.4498 15.7 25.4498 15.7 25.4498V25.3498C15.7 25.2498 15.8 25.1498 16 25.0498Z" fill="white"/>
<path d="M17 25.8499C17.1 25.8499 17.3 25.85 17.4 25.75C17.5 25.75 17.5 25.75 17.6 25.65C17.6 25.65 17.6 25.5499 17.5 25.5499C17.3 25.2499 17.3 24.75 17.6 24.45H17.3C16.8 24.55 16.8 24.65 16.6 24.75C16.5 24.85 16.4 24.95 16.4 24.95L16.3 25.0499C16.2 25.1499 16 25.2499 16 25.3499V25.45C16.2 25.75 16.6 25.9499 17 25.8499Z" fill="white"/>
<path d="M18.9 24.4499C18.5 24.3499 18 24.4499 17.6 24.7499C17.4 24.9499 17.4 25.2499 17.6 25.4499L17.7 25.5499C17.8 25.6499 17.9 25.6499 18 25.7499C18.4 25.8499 18.7 26.1499 18.8 26.4499C18.9 26.1499 19.2 25.8499 19.6 25.7499C19.7 25.7499 19.8 25.6499 19.9 25.5499L20 25.4499C20.2 25.2499 20.2 24.9499 20 24.7499C20 24.5499 19.6 24.4499 18.9 24.4499Z" fill="white"/>
<path d="M20.4 25.7499C20.4 25.7499 20.5 25.8499 20.6 25.8499C20.7 25.8499 20.9 25.9499 21 25.9499C21.4 25.9499 21.8 25.8499 22.1 25.6499V25.5499C22.1 25.4499 21.9 25.3499 21.8 25.2499L21.7 25.1499C21.6 25.0499 21.5 25.0499 21.5 24.9499C21.4 24.8499 21.3 24.7499 20.8 24.6499H20.5C20.6 24.9499 20.6 25.3499 20.4 25.7499Z" fill="white"/>
<path d="M22.3 25.5499C22.8 25.5499 23.3 25.4499 23.8 25.2499C23.3 25.2499 22.8 25.0499 22.4 24.7499L22.3 24.6499H22.2C21.9 24.6499 21.7 24.6499 21.4 24.7499L21.5 24.8499C21.6 24.9499 21.6 24.9499 21.7 25.0499L21.8 25.1499C22 25.2499 22.2 25.3499 22.2 25.5499C22.3 25.4499 22.3 25.5499 22.3 25.5499Z" fill="white"/>
<path d="M15.9 30.25C16 30.25 17 30.55 17.2 30.55C17.5 30.65 17.9 30.55 18.1 30.35L18.2 30.25C18.2 30.25 18.3 30.15 18.3 30.05C18.4 29.75 18.1 29.25 17.1 29.05C15.6 28.75 14.1 28.75 12.6 29.05C11.8 29.25 11.5 29.55 11.5 29.95C11.5 30.05 11.5 30.15 11.6 30.25C11.7 30.45 11.9 30.55 12 30.65C12.1 30.75 12.2 30.75 12.3 30.85C12.5 30.95 12.8 31.05 13 31.05C13.8 31.25 14.6 31.25 15.4 31.25C16.5 31.15 16.4 30.85 16.2 30.65C16.1 30.65 15.9 30.45 15.7 30.35C15.6 30.25 15.7 30.15 15.9 30.25Z" fill="white"/>
<path d="M16.7 30.75C16.7 30.85 16.7 30.85 16.7 30.75C16.7 30.85 16.7 30.95 16.7 31.05C16.6 31.45 16.1 31.55 15.7 31.55H27.1C27.4 31.35 27.8 31.05 28.1 30.85H17L16.7 30.75Z" fill="white"/>
<path d="M13 31.45C12.7 31.35 12.5 31.35 12.2 31.25C12 31.15 11.8 31.05 11.6 30.95H9.7C10 31.25 10.3 31.45 10.7 31.65H14.1C13.7 31.55 13.3 31.45 13 31.45Z" fill="white"/>
<path d="M21.3 27.5499C21.2 27.3499 21.3 27.0499 21.5 26.9499C21.6 26.9499 21.7 26.8499 21.8 26.8499H6.3C6.4 27.0499 6.6 27.3499 6.7 27.5499H21.3Z" fill="white"/>
<path d="M26.7 27.0499C27.2 27.1499 27.6 27.3499 28 27.5499H31C31.2 27.3499 31.3 27.0499 31.4 26.8499H25.4C25.9 26.8499 26.4 26.9499 26.7 27.0499Z" fill="white"/>
<path d="M28.6 28.2498C28.6 28.4498 28.5 28.5498 28.4 28.6498H28.3C28.2 28.6498 28.2 28.7498 28.1 28.7498H30.1C30.3 28.5498 30.5 28.2498 30.7 28.0498H28.6C28.6 28.2498 28.6 28.2498 28.6 28.2498Z" fill="white"/>
<path d="M12.6 28.8499C13.3 28.6499 14.1 28.5499 14.8 28.6499C15.6 28.6499 16.3 28.7499 17.1 28.8499H19.9C19.9 28.7499 19.9 28.5499 19.9 28.4499C19.9 28.3499 20 28.2499 20.1 28.1499H7.2C7.4 28.3499 7.6 28.6499 7.8 28.8499H12.6Z" fill="white"/>
<path d="M11.2 30.1498C11.2 29.9498 11.3 29.7498 11.4 29.5498H8.3C8.5 29.7498 8.8 30.0498 9 30.2498H11.2V30.1498Z" fill="white"/>
<path d="M25.8 29.7498C24.8 29.9498 24 30.0498 23.1 30.0498C22.2 30.1498 21.3 29.9498 20.5 29.5498H18.4C18.4 29.6498 18.5 29.6498 18.5 29.7498C18.6 29.9498 18.6 30.1498 18.6 30.2498H28.9C29.2 30.0498 29.4 29.7498 29.6 29.5498H26.7C26.4 29.5498 26.1 29.6498 25.8 29.7498Z" fill="white"/>
<path d="M22.8 28.25C22.6 28.25 22.4 28.25 22.3 28.15C22.1 28.15 21.8 28.0499 21.6 28.0499H21.4C21.1 28.0499 20.9 28.05 20.6 28.15C20.3 28.25 19.8 28.6499 20.4 29.0499C21.2 29.5499 22.2 29.85 23.1 29.75C24 29.75 24.8 29.65 25.7 29.45H25.8C26.6 29.35 27.4 29.0499 28.2 28.5499C28.3 28.4499 28.3 28.35 28.4 28.25C28.4 28.15 28.3 27.7499 26.8 27.3499C25.7 27.1499 24.7 26.95 23.6 26.95H23.5C22.9 26.95 22.3 26.95 21.8 27.15C21.8 27.15 21.7 27.15 21.7 27.25V27.3499C21.8 27.7499 22.5 27.8499 23 27.8499C23.3 27.8499 23.3 27.9499 23.2 28.0499C23 28.2499 22.9 28.25 22.8 28.25Z" fill="white"/>
<path d="M31.1 23.6499L27.5 23.3499C27.5 23.4499 27.5 23.5499 27.5 23.6499L31.1 23.9499C31.1 23.8499 31.1 23.7499 31.1 23.6499Z" fill="white"/>
<path d="M31 20.45L27.4 21.0499C27.4 21.1499 27.4 21.25 27.4 21.35L31 20.75C31 20.65 31 20.55 31 20.45Z" fill="white"/>
<path d="M26.7 18.95C26.7 19.05 26.8 19.15 26.8 19.25L30.1 17.75C30.1 17.65 30 17.55 30 17.45L26.7 18.95Z" fill="white"/>
<path d="M28.5 14.95L28.3 14.75L25.5 17.05C25.6 17.15 25.6 17.15 25.7 17.25L28.5 14.95Z" fill="white"/>
<path d="M26.3 12.7499L26.1 12.6499L24 15.6499L24.2 15.8499L26.3 12.7499Z" fill="white"/>
<path d="M22.4 14.6499L23.7 11.2499L23.4 11.1499L22.1 14.5499C22.2 14.5499 22.3 14.6499 22.4 14.6499Z" fill="white"/>
<path d="M6.9 23.9499L10.5 23.6499C10.5 23.5499 10.5 23.4499 10.5 23.3499L6.9 23.6499C6.8 23.7499 6.8 23.8499 6.9 23.9499Z" fill="white"/>
<path d="M10.5 21.0499L7 20.45C7 20.55 7 20.65 7 20.75L10.5 21.35C10.5 21.25 10.5 21.1499 10.5 21.0499Z" fill="white"/>
<path d="M7.8 17.6499L11.1 19.1499L11.2 18.8499L7.9 17.3499C7.8 17.5499 7.8 17.5499 7.8 17.6499Z" fill="white"/>
<path d="M12.3 17.05L9.5 14.75C9.4 14.85 9.4 14.85 9.3 14.95L12.1 17.25C12.2 17.15 12.2 17.15 12.3 17.05Z" fill="white"/>
<path d="M13.6 15.85L13.8 15.65L11.6 12.75L11.4 12.95L13.6 15.85Z" fill="white"/>
<path d="M15.4 14.75L13.9 11.45L13.6 11.5499L15.1 14.85L15.4 14.75Z" fill="white"/>
<path d="M27.5 22.4499L33.8 22.1499C33.8 22.0499 33.8 21.9499 33.8 21.8499L27.5 22.2499V22.4499Z" fill="white"/>
<path d="M27.2 20.2498L33.2 18.3498L33.1 18.0498L27.1 19.9498L27.2 20.2498Z" fill="white"/>
<path d="M26.4 18.2499L31.7 14.8499L31.5 14.6499L26.2 18.0499L26.4 18.2499Z" fill="white"/>
<path d="M29.3 11.8499L29.1 11.6499L24.8 16.2499L25 16.4499L29.3 11.8499Z" fill="white"/>
<path d="M26.3 9.54995L26 9.44995L23 15.0499L23.3 15.15L26.3 9.54995Z" fill="white"/>
<path d="M10.4 22.25L4.1 21.95C4.1 22.05 4.1 22.15 4.1 22.25L10.4 22.5499C10.4 22.4499 10.4 22.25 10.4 22.25Z" fill="white"/>
<path d="M10.7 19.9498L4.7 18.0498L4.6 18.3498L10.6 20.2498L10.7 19.9498Z" fill="white"/>
<path d="M11.7 17.9498L6.4 14.5498L6.2 14.7498L11.5 18.1498L11.7 17.9498Z" fill="white"/>
<path d="M13 16.35L8.59999 11.75L8.39999 11.95L12.8 16.55L13 16.35Z" fill="white"/>
<path d="M11.2 9.85L14.4 15.35L14.6 15.25L11.5 9.75L11.2 9.85Z" fill="white"/>
<path d="M8.8 10.0499L8.6 9.84985L8.3 10.2499C8.2 10.3499 8.2 10.4499 8.2 10.5499C8.2 10.6499 8.2 10.7499 8.3 10.8499C8.4 10.9499 8.5 11.0499 8.7 11.0499C8.9 11.0499 9.1 11.0499 9.3 11.0499V10.9499C9.2 10.9499 9 10.9499 8.9 10.8499C8.8 10.8499 8.7 10.7499 8.6 10.7499C8.5 10.7499 8.5 10.6499 8.5 10.5499C8.5 10.4499 8.5 10.4499 8.6 10.3499L8.8 10.0499Z" fill="white"/>
<path d="M10.4 6.8499H10.5H10.6L11.1 7.0499C11.2 7.0499 11.1 6.9499 10.9 6.8499L10.7 6.7499C10.6 6.7499 10.5 6.6499 10.4 6.6499C10.3 6.6499 10.2 6.6499 10.1 6.7499L10 6.8499L10.3 7.0499C10.3 6.8499 10.4 6.8499 10.4 6.8499Z" fill="white"/>
<path d="M11.9 6.2499L12 6.1499C12.1 6.1499 12.2 6.1499 12.3 6.1499C12.4 6.1499 12.6 6.1499 12.7 6.2499L12.9 6.1499L12.4 5.7499C12.3 5.6499 12.3 5.6499 12.2 5.6499C12.1 5.6499 12 5.6499 12 5.6499C11.9 5.6499 11.9 5.7499 11.8 5.7499L12.1 5.9499C12.1 5.9499 12.1 5.9499 12.1 5.8499L12.2 5.7499H12.3C12.4 5.7499 12.4 5.8499 12.5 5.8499L12.8 6.0499C12.6 5.9499 12.4 5.9499 12.2 5.8499C12.1 5.8499 12 5.8499 11.9 5.8499C11.9 5.8499 11.8 5.8499 11.8 5.9499L11.7 6.0499L11.9 6.2499C11.8 6.2499 11.8 6.2499 11.9 6.2499Z" fill="white"/>
<path d="M8.7 9.4499C8.8 9.5499 8.8 9.6499 8.8 9.7499C8.8 9.8499 8.7 9.9499 8.6 10.0499C8.8 10.1499 9 10.2499 9.2 10.2499C9.4 10.2499 9.5 10.2499 9.6 10.1499C9.7 10.1499 9.7 10.0499 9.7 9.9499C9.7 9.8499 9.8 9.8499 9.8 9.7499L10 9.9499L10.4 9.8499L9.4 8.7499L9.9 8.3499L10.7 9.3499H11.1L10.1 8.1499L10.6 7.7499L10.8 8.1499L10.7 8.2499C10.7 8.2499 10.7 8.2499 10.7 8.3499C10.7 8.3499 10.7 8.3499 10.7 8.4499C10.8 8.5499 10.9 8.5499 11 8.5499C11.1 8.5499 11.2 8.5499 11.3 8.5499C11.3 8.5499 11.3 8.5499 11.4 8.4499V8.3499L10.9 7.6499L11.3 7.4499L12 8.5499H12.4L11.6 7.2499C12 7.0499 12.3 6.8499 12.7 6.6499L12.9 7.0499L12.3 7.3499C12.3 7.3499 12.2 7.3499 12.2 7.4499V7.5499C12.3 7.6499 12.3 7.7499 12.4 7.7499C12.5 7.7499 12.6 7.7499 12.7 7.7499C12.7 7.7499 12.7 7.7499 12.7 7.6499V7.4499C12.7 7.4499 12.7 7.4499 12.7 7.3499M12.6 7.3499L12.9 7.1499L13.2 7.6499H13.6L12.9 6.3499C13.3 6.1499 13.7 5.9499 14.1 5.8499L14.3 6.3499C14.3 6.2499 14.2 6.2499 14.1 6.1499C14 6.1499 13.9 6.1499 13.9 6.1499C13.8 6.1499 13.7 6.2499 13.6 6.3499C13.5 6.4499 13.5 6.5499 13.6 6.6499C13.7 6.7499 13.8 6.8499 13.9 6.9499C14 7.0499 14.2 7.0499 14.3 7.0499C14.4 7.0499 14.4 6.9499 14.4 6.9499C14.5 6.8499 14.5 6.8499 14.5 6.7499L14.6 7.0499L15 7.1499L14.8 6.5499C14.8 6.4499 14.9 6.3499 14.9 6.3499C14.9 6.2499 15 6.2499 15.1 6.2499C15.2 6.2499 15.2 6.2499 15.3 6.3499C15.3 6.4499 15.3 6.5499 15.3 6.5499C15.3 6.6499 15.3 6.7499 15.2 6.8499L15.5 6.9499C15.6 6.7499 15.6 6.5499 15.5 6.3499C15.4 6.2499 15.4 6.1499 15.2 6.0499C15.1 5.9499 15 5.9499 14.9 5.9499L14.8 6.0499C14.7 6.0499 14.7 6.1499 14.7 6.1499L14.6 5.7499C14.9 5.6499 15.2 5.5499 15.6 5.4499L15.5 5.3499L15.3 5.1499C12.2 5.9499 9.5 7.7499 7.5 10.2499L7.8 10.3499C8.1 9.9499 8.4 9.5499 8.8 9.2499L12.6 7.3499ZM14.3 6.7499C14.2 6.8499 14.2 6.8499 14.1 6.8499H14C14 6.8499 13.9 6.8499 13.9 6.7499C13.9 6.6499 13.9 6.6499 13.9 6.5499C13.9 6.4499 14 6.4499 14 6.4499C14.1 6.4499 14.1 6.4499 14.2 6.4499C14.3 6.4499 14.4 6.4499 14.4 6.5499C14.4 6.6499 14.3 6.7499 14.3 6.7499ZM9.2 8.9499L9.6 9.3499C9.6 9.4499 9.6 9.5499 9.5 9.6499C9.5 9.7499 9.4 9.7499 9.4 9.8499C9.4 9.8499 9.3 9.9499 9.2 9.9499C9.1 9.9499 9.1 9.9499 9 9.9499C9.1 9.8499 9.1 9.7499 9.1 9.6499C9.1 9.5499 9.1 9.4499 9.1 9.4499L9 9.3499C8.9 9.3499 8.9 9.3499 8.8 9.3499L9.2 8.9499Z" fill="white"/>
<path d="M13.5 5.24985C13.6 5.24985 13.7 5.24985 13.8 5.24985L14.3 5.54985C14.4 5.54985 14.3 5.44985 14.1 5.24985L13.9 5.04985C13.8 4.94985 13.7 4.94985 13.6 4.84985C13.5 4.84985 13.4 4.84985 13.3 4.84985C13.3 4.84985 13.2 4.84985 13.2 4.94985L13.4 5.14985C13.4 5.24985 13.4 5.24985 13.5 5.24985Z" fill="white"/>
<path d="M19.7 6.8499C19.8 6.8499 19.8 6.8499 19.9 6.8499H20.1L20 6.6499H19.8C19.7 6.6499 19.6 6.6499 19.5 6.7499C19.4 6.7499 19.4 6.8499 19.4 6.9499C19.4 7.0499 19.4 7.2499 19.5 7.3499C19.6 7.4499 19.7 7.5499 19.9 7.5499C20 7.5499 20.1 7.5499 20.1 7.5499C20.2 7.5499 20.2 7.5499 20.3 7.4499L20.2 7.1499C20.1 7.2499 20 7.2499 20 7.2499C19.9 7.2499 19.8 7.2499 19.8 7.2499C19.8 7.2499 19.7 7.2499 19.7 7.1499V7.0499C19.6 6.9499 19.6 6.8499 19.7 6.8499Z" fill="white"/>
<path d="M22.5 6.14985C22.6 6.14985 22.6 6.14985 22.7 6.14985L23.1 6.24985L23.2 5.94985L22.7 5.84985C22.6 5.84985 22.5 5.84985 22.4 5.84985C22.3 5.84985 22.2 5.94985 22.2 6.04985C22.2 6.14985 22.2 6.34985 22.2 6.44985C22.3 6.64985 22.3 6.84985 22.4 6.94985H22.5C22.4 6.84985 22.4 6.74985 22.4 6.54985C22.4 6.44985 22.4 6.34985 22.4 6.24985C22.4 6.24985 22.5 6.24985 22.5 6.14985Z" fill="white"/>
<path d="M28.7 8.84985C28.6 8.84985 28.5 8.94985 28.5 9.14985C28.5 9.34985 28.5 9.54985 28.6 9.74985C28.5 9.74985 28.3 9.74985 28.2 9.74985V9.64985V9.54985H28.1C28 9.54985 28 9.54985 28 9.64985C28 9.74985 28 9.74985 28 9.84985C28 9.94985 28.1 9.94985 28.1 10.0499L28 10.5499L28.2 10.6499V10.1499C28.4 10.2499 28.6 10.2499 28.8 10.1499C29 10.1499 29.1 10.0499 29.2 9.94985C29.4 9.74985 29.4 9.34985 29.2 9.04985C29 8.84985 28.9 8.84985 28.7 8.84985ZM29 9.24985C29 9.34985 29 9.34985 28.9 9.44985L28.8 9.54985H28.7C28.7 9.44985 28.7 9.34985 28.7 9.24985C28.7 9.14985 28.7 9.14985 28.8 9.04985L28.9 8.94985H29C29 9.14985 29 9.24985 29 9.24985Z" fill="white"/>
<path d="M28.3 11.15C28.2 11.15 28.1 11.05 28 11.05C27.9 10.95 27.8 10.75 27.7 10.65C27.6 10.55 27.6 10.45 27.6 10.25H27.5C27.5 10.45 27.5 10.55 27.6 10.75C27.7 10.95 27.8 11.05 27.9 11.25C28 11.35 28.1 11.45 28.2 11.45C28.3 11.45 28.4 11.45 28.5 11.35C28.6 11.25 28.6 11.15 28.6 11.05C28.6 10.95 28.6 10.85 28.5 10.75L28.4 10.65C28.3 10.65 28.3 10.65 28.2 10.65V10.95C28.3 10.95 28.3 10.95 28.4 10.95C28.4 10.95 28.5 10.95 28.5 11.05V11.15C28.5 11.15 28.5 11.15 28.5 11.25C28.5 11.15 28.4 11.25 28.3 11.15Z" fill="white"/>
<path d="M16.9 6.45C17 6.55 17.2 6.65 17.4 6.55C17.5 6.55 17.6 6.45 17.7 6.35C17.8 6.25 17.8 6.15 17.8 6.05V5.95C17.8 5.95 17.8 5.85 17.7 5.85C17.8 5.85 17.8 5.95 17.9 5.95C18 5.95 18 5.95 18.1 5.95C18.2 5.95 18.2 5.95 18.2 5.85V6.35L18.5 6.45L18.3 5.05H19.1V5.65H19C19 5.65 19 5.65 18.9 5.65C18.9 5.65 18.9 5.65 18.9 5.75C18.9 5.85 19 5.95 19.1 6.05C19.2 6.15 19.3 6.25 19.4 6.25V6.15V6.05H19.9V6.45L20.2 6.65L20.3 5.15C20.7 5.15 21.2 5.25 21.6 5.35V5.55L21.1 5.45C21 5.45 20.9 5.45 20.8 5.55C20.7 5.65 20.7 5.65 20.6 5.75C20.6 5.85 20.6 6.05 20.6 6.15C20.7 6.35 20.7 6.55 20.8 6.65L20.9 6.55C20.8 6.45 20.8 6.35 20.7 6.25C20.7 6.15 20.7 6.05 20.7 5.95C20.7 5.85 20.8 5.85 20.8 5.75C20.9 5.75 20.9 5.65 21 5.65L21.3 5.75L21.2 6.45L21.5 6.75L21.7 5.25C22.5 5.45 23.3 5.65 24.1 5.95V6.55C24.1 6.45 24 6.35 23.9 6.25C23.8 6.15 23.7 6.15 23.7 6.05C23.6 6.05 23.5 6.05 23.3 6.05C23.2 6.05 23.1 6.15 23.1 6.25C23.1 6.45 23.1 6.55 23.2 6.75C23.3 6.95 23.4 7.05 23.5 7.05C23.6 7.05 23.7 7.05 23.7 7.05C23.8 7.05 23.9 7.05 23.9 6.95L23.8 7.25L24 7.55L24.5 6.15L25.1 6.45L24.8 6.95L24.7 6.85C24.7 6.85 24.7 6.85 24.6 6.85C24.6 6.85 24.6 6.85 24.5 6.85C24.5 6.95 24.5 7.05 24.5 7.15C24.6 7.35 24.6 7.45 24.6 7.45H24.7L24.8 7.35L24.9 7.25L25.4 7.45L25.2 7.75L25.4 8.05L26.1 6.75L26.6 7.05L25.9 8.15L26 8.45L26.8 7.25C27.1 7.45 27.5 7.75 27.8 7.95L27.5 8.35L27.1 8.15H27C27 8.15 26.9 8.15 26.9 8.25C26.8 8.35 26.8 8.45 26.8 8.55C26.8 8.65 26.8 8.75 26.9 8.75M26.9 8.75L27 8.65H27.1M27.2 8.65L27.5 8.85L27.1 9.35L27.2 9.65L28.1 8.45L28.5 8.75L28.7 8.55C26 6.15 22.5 4.75 18.8 4.75C18.4 4.75 17.9 4.75 17.5 4.85L17.7 5.15H17.9V5.55L17.8 5.65H17.7H17.5H17.4L17.5 5.55C17.5 5.45 17.5 5.45 17.5 5.35C17.5 5.25 17.4 5.15 17.3 5.05C17.2 4.95 17 4.95 16.9 4.95C16.8 4.95 16.8 4.95 16.7 5.05C16.6 5.05 16.6 5.15 16.5 5.15L16.7 5.35C16.8 5.25 16.8 5.25 16.9 5.15C17 5.15 17 5.05 17.1 5.05C17.2 5.05 17.2 5.05 17.3 5.05L17.4 5.15C17.4 5.25 17.4 5.25 17.4 5.35C17.4 5.45 17.3 5.45 17.3 5.45H17.2L17 5.55L17.1 5.85C17.2 5.85 17.3 5.75 17.4 5.65C17.4 5.65 17.4 5.65 17.5 5.75V5.85C17.5 5.95 17.5 6.05 17.4 6.05C17.3 6.25 17.2 6.25 17.2 6.25C17.1 6.25 17 6.25 16.9 6.15C16.8 6.05 16.7 5.95 16.6 5.85L16.5 5.95C16.6 6.15 16.8 6.35 17 6.45L27.2 8.65ZM23.7 6.85C23.6 6.85 23.5 6.85 23.4 6.85C23.3 6.85 23.3 6.75 23.3 6.75V6.65C23.3 6.55 23.4 6.55 23.5 6.45C23.6 6.45 23.7 6.45 23.8 6.45C23.9 6.45 23.9 6.55 24 6.55C24.1 6.65 24.1 6.65 24.1 6.75C24 6.75 23.9 6.85 23.7 6.85ZM25.5 6.65L26 6.95L25.7 7.45L25.2 7.25L25.5 6.65ZM19.4 5.15H19.9V5.75H19.4V5.15Z" fill="white"/>
<path d="M28.6 10.65L28.7 10.95L29.7 9.95L29.9 10.25L30 9.85C29.8 9.65 29.6 9.45 29.4 9.25L29.2 9.45L29.5 9.75L28.6 10.65Z" fill="white"/>
<path d="M29.7 10.8499H29.3V11.2499H29.7V10.8499Z" fill="white"/>
<path d="M30.1 10.45H29.7V10.85H30.1V10.45Z" fill="white"/>
<path d="M14.3 47.9499L14.8 48.2499V45.7499H15.3L15.1 45.2499H2L2.3 45.7499H2.4V46.8499L1.8 46.5499C1.9 46.4499 1.9 46.4499 1.9 46.3499C1.9 46.2499 1.9 46.1499 1.9 46.0499C1.9 45.8499 1.8 45.5499 1.6 45.4499C1.5 45.2499 1.2 45.1499 1 45.1499C0.8 45.1499 0.7 45.2499 0.5 45.3499C0.4 45.4499 0.3 45.6499 0.3 45.7499C0.3 45.9499 0.4 46.0499 0.5 46.1499C0.6 46.2499 0.8 46.4499 1 46.4499C0.7 46.6499 0.4 46.8499 0 46.9499L0.4 47.2499C0.8 47.0499 1.1 46.8499 1.5 46.5499L2.1 46.9499L0.7 47.8499L1.1 48.1499L2.4 47.2499V47.9499L2.9 48.2499V45.7499H6V46.1499H5.4C5.2 46.1499 5 46.2499 4.9 46.3499C4.8 46.4499 4.7 46.6499 4.7 46.8499C4.7 47.1499 4.9 47.4499 5.1 47.6499C5.3 47.8499 5.6 48.0499 5.9 48.0499H6H6.1C6 48.2499 5.9 48.4499 5.8 48.5499C5.7 48.6499 5.6 48.7499 5.4 48.7499C5.3 48.7499 5.3 48.7499 5.2 48.6499C5.2 48.6499 5.1 48.5499 5.1 48.4499C5.1 48.3499 5.1 48.2499 5.2 48.2499C5.3 48.1499 5.4 48.1499 5.5 48.1499L5 47.8499C4.9 47.8499 4.9 47.8499 4.8 47.9499L4.7 48.0499C4.5 48.0499 4.4 48.0499 4.3 47.9499C4.4 47.9499 4.5 47.8499 4.5 47.7499C4.6 47.6499 4.6 47.5499 4.6 47.4499C4.6 47.3499 4.6 47.1499 4.5 47.1499C4.3 47.2499 4.2 47.1499 4.1 47.1499C3.9 47.1499 3.8 47.1499 3.7 47.2499C3.6 47.3499 3.5 47.4499 3.5 47.6499C3.5 47.8499 3.6 48.0499 3.8 48.1499C4 48.2499 4.3 48.3499 4.6 48.3499C4.6 48.4499 4.6 48.6499 4.8 48.7499C5 48.8499 5.2 48.9499 5.5 48.9499C5.7 48.9499 5.8 48.8499 5.9 48.7499C6 48.6499 6.2 48.4499 6.2 48.2499L6.4 48.7499L6.7 48.6499L6.3 47.9499C6.4 47.9499 6.4 47.8499 6.5 47.8499C6.6 47.7499 6.6 47.7499 6.6 47.6499C6.6 47.5499 6.5 47.3499 6.5 47.3499C6.5 47.2499 6.4 47.2499 6.2 47.2499C6.2 47.2499 6.1 47.2499 6 47.2499C5.9 47.2499 5.9 47.3499 5.9 47.4499C5.9 47.5499 5.9 47.6499 6 47.7499C5.9 47.8499 5.8 47.8499 5.7 47.8499C5.5 47.8499 5.4 47.7499 5.3 47.6499C5.1 47.5499 5.1 47.3499 5.1 47.1499C5.1 47.0499 5.1 46.8499 5.2 46.7499C5.3 46.6499 5.4 46.5499 5.5 46.5499H6.5V45.6499H7.4V47.7499L7.9 48.2499V45.7499H10.3V46.5499C10.2 46.3499 10 46.2499 9.8 46.1499C9.7 46.0499 9.5 46.0499 9.3 46.0499C9.1 46.0499 8.9 46.1499 8.7 46.2499C8.5 46.3499 8.5 46.5499 8.5 46.7499C8.5 47.0499 8.7 47.2499 8.9 47.4499C9.1 47.6499 9.3 47.7499 9.6 47.7499C9.7 47.7499 9.9 47.7499 10 47.6499C10.1 47.5499 10.2 47.5499 10.3 47.4499V47.9499L10.8 48.2499V45.7499H11.7V47.8499L12.2 48.1499V45.6499H14.2V46.4499H13.1C13 46.4499 13 46.4499 12.9 46.5499C12.9 46.5499 12.8 46.6499 12.8 46.7499C12.8 46.9499 12.9 47.0499 13 47.2499C13.1 47.3499 13.2 47.4499 13.3 47.4499H13.4V47.3499V47.1499V47.0499C13.4 47.0499 13.4 47.0499 13.5 47.0499H14.1L14.3 47.9499ZM1.4 46.1499C1.4 46.2499 1.3 46.3499 1.2 46.3499C1.1 46.3499 1 46.2499 1 46.2499C0.9 46.1499 0.9 46.0499 0.9 45.9499C0.9 45.8499 0.9 45.7499 1 45.7499C1.1 45.6499 1.2 45.6499 1.3 45.6499C1.4 45.6499 1.4 45.6499 1.5 45.7499C1.6 45.7499 1.6 45.8499 1.6 45.9499C1.5 45.9499 1.5 46.0499 1.4 46.1499ZM3.8 47.9499C3.7 47.9499 3.7 47.8499 3.7 47.7499C3.7 47.6499 3.7 47.6499 3.8 47.5499C3.8 47.4499 3.9 47.4499 4 47.4499C4.1 47.4499 4.1 47.4499 4.2 47.5499C4.3 47.5499 4.3 47.6499 4.3 47.7499C4.3 47.8499 4.2 48.0499 4 48.0499C4 48.0499 3.9 47.9499 3.8 47.9499ZM9.8 47.1499C9.6 47.2499 9.5 47.2499 9.3 47.2499C9.2 47.2499 9.1 47.2499 9 47.1499C8.9 47.0499 8.9 47.0499 8.9 46.9499C8.9 46.7499 9 46.6499 9.1 46.5499C9.3 46.4499 9.4 46.3499 9.6 46.3499C9.7 46.3499 9.8 46.3499 9.9 46.4499C10 46.5499 10.1 46.6499 10.2 46.7499C10.2 46.9499 10 47.0499 9.8 47.1499Z" fill="white"/>
<path d="M14.8 48.5499C14.7 48.4499 14.6 48.3499 14.4 48.3499C14.3 48.3499 14.2 48.3499 14.2 48.3499C14.1 48.3499 14.1 48.4499 14 48.4499L14.2 48.7499L14.3 48.6499H14.4C14.5 48.6499 14.8 48.8499 15.2 49.2499L15.5 49.5499L15.7 49.4499C15.6 49.2499 15.2 48.9499 14.8 48.5499Z" fill="white"/>
<path d="M25.5 45.2498H21.8L22.1 45.7498H22.7V46.7498H21.9V45.8498C21.9 45.6498 21.8 45.4498 21.6 45.3498C21.5 45.1498 21.3 45.0498 21.1 45.0498C21 45.0498 20.8 45.0498 20.7 45.1498C20.6 45.2498 20.5 45.3498 20.5 45.5498V45.6498L20.3 45.2498H16.9L17.2 45.7498H19.4V46.1498C19.3 46.1498 19.2 46.1498 19.2 46.2498C19.1 46.3498 19 46.4498 18.9 46.5498C18.8 46.4498 18.7 46.3498 18.6 46.2498C18.5 46.1498 18.4 46.1498 18.3 46.1498C18.1 46.1498 17.9 46.2498 17.8 46.3498C17.7 46.4498 17.6 46.6498 17.6 46.8498C17.6 47.0498 17.7 47.3498 17.9 47.4498C18.1 47.7498 18.4 47.9498 18.6 48.1498L18.7 47.9498C18.5 47.8498 18.4 47.6498 18.2 47.4498C18.1 47.3498 18 47.1498 18 46.9498C18 46.8498 18 46.6498 18.1 46.6498C18.2 46.5498 18.3 46.5498 18.4 46.5498C18.5 46.5498 18.5 46.5498 18.6 46.6498C18.7 46.6498 18.7 46.7498 18.8 46.7498C18.7 47.0498 18.6 47.1498 18.6 47.2498L19.1 47.4498C19.1 47.2498 19.2 46.9498 19.4 46.7498C19.5 46.6498 19.6 46.5498 19.8 46.4498C19.9 46.4498 19.9 46.4498 20 46.5498C20.1 46.5498 20.1 46.6498 20.1 46.7498C20.1 46.9498 20 47.0498 19.9 47.1498C19.8 47.3498 19.6 47.4498 19.4 47.6498L19.8 48.0498C20 47.8498 20.1 47.6498 20.2 47.4498C20.3 47.2498 20.3 47.1498 20.3 46.9498C20.3 46.7498 20.3 46.6498 20.2 46.4498C20.1 46.3498 20 46.2498 19.9 46.1498V45.8498H20.6C20.6 45.9498 20.7 46.1498 20.8 46.2498C21 46.4498 21.2 46.5498 21.4 46.5498V46.8498H21.2H21.1L21 46.9498C21 47.1498 21.1 47.2498 21.3 47.3498C21.4 47.4498 21.6 47.5498 21.8 47.6498C21.9 47.6498 21.9 47.6498 21.9 47.5498C21.9 47.5498 21.9 47.4498 21.9 47.3498V47.2498H22.7V47.9498L23.2 48.2498V45.8498H25.3V46.2498H24.5C24.3 46.2498 24.2 46.3498 24 46.4498C23.9 46.5498 23.8 46.7498 23.8 46.8498C23.8 47.1498 23.9 47.3498 24 47.5498C24.1 47.8498 24.3 48.0498 24.5 48.2498L24.7 48.1498C24.6 48.0498 24.4 47.8498 24.4 47.6498C24.3 47.4498 24.3 47.3498 24.3 47.1498C24.3 47.0498 24.3 46.9498 24.4 46.8498C24.5 46.7498 24.6 46.7498 24.7 46.7498H25.2V47.9498L25.7 48.2498V45.7498H26.2L25.9 45.2498H25.5ZM21.3 46.2498C21.2 46.2498 21.1 46.1498 21.1 46.0498C21 45.9498 21 45.8498 21 45.7498C21 45.6498 21 45.5498 21.1 45.5498C21.1 45.4498 21.2 45.4498 21.2 45.4498C21.2 45.4498 21.3 45.4498 21.3 45.5498C21.3 45.6498 21.3 45.6498 21.3 45.7498V46.2498Z" fill="white"/>
<path d="M25.4 44.75C25.3 44.55 25.2 44.45 25.1 44.45C25 44.25 24.8 44.1499 24.7 44.0499C24.6 43.9499 24.4 43.95 24.2 43.95C24.1 43.95 24.1 43.95 24 43.95L24.2 44.45C24.3 44.45 24.4 44.45 24.4 44.45C24.5 44.45 24.6 44.4499 24.6 44.5499C24.7 44.5499 24.7 44.65 24.8 44.65L25.4 45.3499C25.7 45.2499 25.6 45.15 25.4 44.75Z" fill="white"/>
<path d="M37 47.85L37.5 48.15V45.65H38.1L37.8 45.25H27.9L28.2 45.75H30.2V46.15H28.6L28.5 46.35C28.7 46.45 28.9 46.55 29.1 46.65C29.2 46.75 29.3 46.95 29.3 47.15C29.3 47.25 29.3 47.35 29.2 47.35C29.1 47.45 29 47.45 28.9 47.45C28.8 47.35 28.7 47.25 28.6 47.25C28.5 47.25 28.5 47.25 28.4 47.35C28.3 47.45 28.3 47.45 28.3 47.55C28.3 47.65 28.4 47.75 28.5 47.85C28.6 47.95 28.8 47.95 28.9 47.95L29.2 48.75L29.5 48.65L29 47.95C29.2 47.95 29.3 47.85 29.4 47.75C29.5 47.65 29.6 47.55 29.6 47.35C29.6 47.15 29.6 47.05 29.5 46.95C29.4 46.85 29.3 46.65 29.2 46.55H30.1V47.85L30.6 48.15V45.65H31.5V47.75L32.1 48.25V45.75H34.1V46.55H33C32.9 46.55 32.9 46.55 32.8 46.65C32.8 46.65 32.7 46.75 32.7 46.85C32.7 47.05 32.8 47.15 32.9 47.35C33 47.45 33.1 47.55 33.2 47.55H33.3V47.45V47.25V47.15C33.3 47.15 33.3 47.15 33.4 47.15H34.1V48.05L34.6 48.35V45.85H35.5V46.85H35.3H35.2V46.95C35.2 47.05 35.3 47.15 35.5 47.35C35.7 47.55 35.8 47.65 35.9 47.65C36 47.65 36 47.65 36 47.65V47.55V47.35H36.9L37 47.85ZM36.2 46.75V45.75H37.1V46.75H36.2Z" fill="white"/>
<path d="M37.6 48.5499C37.5 48.4499 37.4 48.3499 37.2 48.3499C37.1 48.3499 37 48.3499 37 48.3499C36.9 48.3499 36.9 48.4499 36.8 48.4499L37 48.7499L37.1 48.6499H37.2C37.3 48.6499 37.6 48.8499 38 49.2499L38.3 49.5499L38.5 49.4499C38.3 49.2499 38 48.9499 37.6 48.5499Z" fill="white"/>
<path d="M16.8 16.2499C16.7 16.4499 16.7 16.6499 16.8 16.8499C16.9 17.0499 17.1 17.2499 17.3 17.2499C17.3 17.5499 17.6 17.8499 18.1 17.9499C18.2 18.3499 18.5 18.5499 18.9 18.5499H19.1C19.4 18.4499 19.6 18.2499 19.6 18.0499C20.1 17.9499 20.4 17.6499 20.4 17.3499V17.2499C20.7 17.0499 20.9 16.7499 20.9 16.5499C20.9 16.4499 20.9 16.4499 20.8 16.3499C21.2 15.9499 21.6 15.4499 21.8 14.8499V14.7499C21.8 14.6499 21.9 14.4499 21.9 14.3499C21.9 13.9499 21.9 13.5499 21.7 13.1499L21.6 12.8499C21.5 12.6499 21.3 12.4499 21.2 12.2499L21.1 11.9499L20.9 11.7499L20.8 11.6499C20.2 11.0499 19.7 10.6499 19.9 9.7499C20.1 9.0499 19.9 8.2499 19.4 7.6499H19.3C19.3 7.5499 19.3 7.4499 19.3 7.4499C19.2 7.3499 19.1 7.2499 18.9 7.1499H18.8C18.6 7.1499 18.3 7.2499 18.2 7.7499C18.1 8.2499 18.1 8.6499 18.1 9.0499V9.2499C17.9 10.1499 17.5 10.9499 16.8 11.5499C16.5 11.8499 16.3 12.2499 16.1 12.5499C15.3 13.8499 15.6 15.4499 16.8 16.2499ZM19 18.1499C18.8 18.1499 18.6 18.0499 18.6 17.9499C18.6 17.9499 18.6 17.9499 18.6 17.8499H18.8H19H19.4C19.4 17.8499 19.4 17.8499 19.4 17.9499C19.3 18.0499 19.2 18.1499 19 18.1499ZM19.4 17.6499H19.1H18.9C18.8 17.6499 18.6 17.6499 18.5 17.6499C18 17.5499 17.7 17.4499 17.7 17.2499C18 17.3499 18.4 17.3499 18.7 17.3499C19.2 17.3499 19.6 17.2499 20 17.1499V17.2499C20.2 17.3499 19.9 17.5499 19.4 17.6499ZM17.1 11.9499C17.8 11.2499 18.4 10.2499 18.6 9.2499V8.9499C18.6 8.5499 18.6 8.1499 18.7 7.8499C18.8 7.5499 18.9 7.5499 18.9 7.5499C19 7.5499 19 7.6499 19 7.7499C19 7.8499 19 8.0499 19 8.2499C18.9 8.7499 18.9 9.3499 19 9.8499C19.1 10.2499 19.2 10.5499 19.4 10.9499C19.6 11.3499 19.8 11.7499 19.8 12.2499C19.8 12.9499 19.5 13.0499 19.2 13.0499C19.1 13.0499 18.9 13.0499 18.9 13.2499C18.9 13.3499 19 13.3499 19 13.3499H19.1C19.2 13.3499 19.3 13.3499 19.4 13.2499C19.5 13.2499 19.6 13.2499 19.6 13.2499C19.8 13.3499 20 13.4499 20.1 13.6499C20.2 13.9499 20.1 14.3499 19.8 14.5499C19.7 14.7499 19.5 14.8499 19.2 14.8499C19.1 14.8499 19.1 14.9499 19.1 14.9499C19.1 15.0499 19.2 15.0499 19.2 15.0499H19.3C19.7 15.0499 20.1 15.1499 20.4 15.3499C20.5 15.4499 20.5 15.5499 20.5 15.6499C20.5 15.8499 20.2 15.9499 20 16.0499C19.8 16.1499 19.8 16.1499 19.8 16.2499V16.3499L19.9 16.4499H20.1C20.2 16.4499 20.3 16.3499 20.4 16.3499H20.5C20.6 16.3499 20.6 16.4499 20.6 16.4499C20.6 16.4499 20.4 16.7499 20 16.9499C19.6 17.0499 19.3 17.1499 18.9 17.0499C18.2 17.0499 17.3 16.9499 17.2 16.6499C17.2 16.5499 17.2 16.4499 17.2 16.3499C17.2 16.3499 17.2 16.3499 17.3 16.4499C17.8 16.6499 18.3 16.7499 18.8 16.7499C19 16.7499 19.1 16.7499 19.3 16.7499C19.4 16.7499 19.5 16.6499 19.5 16.5499C19.5 16.4499 19.4 16.4499 19.3 16.4499H18.9C18.4 16.4499 17.9 16.3499 17.5 16.1499C17.2 16.0499 16.9 15.8499 16.6 15.6499C16.2 15.2499 16 14.7499 16 14.2499C16.1 13.4499 16.5 12.5499 17.1 11.9499Z" fill="white"/>
<path d="M27 24.5498L26.6 24.4498C27.6 20.4498 25.4 16.2498 21.4 14.9498L21.5 14.5498C25.7 16.0498 28.1 20.3498 27 24.5498Z" fill="white"/>
<path d="M10.9 24.55C10.7 23.85 10.6 23.15 10.6 22.45C10.6 19.05 12.6 16.05 15.7 14.75L15.8 15.05C12.8 16.25 10.8 19.15 10.9 22.35C10.9 23.05 11 23.65 11.2 24.35L10.9 24.55Z" fill="white"/>
<path d="M16.9 41.3499C16.9 41.3499 16.8 41.3499 16.8 41.4499L16.7 41.5499C16.7 41.6499 16.7 41.7499 16.8 41.7499C16.9 41.8499 16.9 41.8499 17 41.8499C17 41.8499 17 41.7499 17.1 41.7499V41.6499C17.1 41.5499 17.1 41.5499 17 41.4499C17 41.3499 17 41.3499 16.9 41.3499Z" fill="white"/>
<path d="M18.3 41.8499C18.2 41.8499 18.1 41.8499 18 41.9499C17.9 41.9499 17.9 42.0499 17.9 42.1499C17.9 42.2499 17.9 42.2499 18 42.2499C18 42.2499 18.1 42.3499 18.2 42.3499C18.3 42.3499 18.4 42.3499 18.5 42.2499C18.6 42.1499 18.7 42.1499 18.8 42.0499C18.7 41.9499 18.7 41.9499 18.6 41.8499C18.4 41.9499 18.4 41.8499 18.3 41.8499Z" fill="white"/>
<path d="M9.89067 39.8656L9.70029 40.4346L10.2693 40.6249L10.4596 40.056L9.89067 39.8656Z" fill="white"/>
<path d="M15.2 41.6499C15.1 41.6499 15 41.6499 14.9 41.7499C14.8 41.7499 14.8 41.8499 14.8 41.9499C14.8 42.0499 14.8 42.0499 14.9 42.1499C14.9 42.1499 15 42.2499 15.1 42.2499C15.2 42.2499 15.3 42.2499 15.4 42.2499C15.5 42.2499 15.6 42.1499 15.7 42.0499C15.6 41.9499 15.6 41.9499 15.5 41.8499C15.4 41.7499 15.3 41.6499 15.2 41.6499Z" fill="white"/>
<path d="M30.7397 38.6621L30.1924 38.9077L30.438 39.4551L30.9854 39.2095L30.7397 38.6621Z" fill="white"/>
<path d="M28.9 40.4499C28.9 40.4499 28.9 40.5499 28.9 40.6499C28.9 40.7499 29 40.7499 29.1 40.8499C29.2 40.8499 29.3 40.8499 29.4 40.8499C29.5 40.8499 29.6 40.7499 29.7 40.5499C29.8 40.4499 29.8 40.3499 29.7 40.2499C29.7 40.1499 29.6 40.1499 29.5 40.1499C29.4 40.1499 29.3 40.1499 29.2 40.1499L29.1 40.2499C29 40.3499 28.9 40.3499 28.9 40.4499Z" fill="white"/>
<path d="M26.3 40.35L26.5 41.25C26.5 41.25 26.5 41.35 26.6 41.35H26.7C26.8 41.35 26.9 41.25 26.9 41.15C27 41.05 27 40.95 27 40.85L26.8 40.25L26.3 40.35Z" fill="white"/>
<path d="M22.1 41.7499C22 41.7499 21.9 41.8499 21.8 41.8499C21.7 41.9499 21.7 41.9499 21.7 42.0499C21.7 42.1499 21.7 42.1499 21.8 42.1499C21.9 42.1499 21.9 42.1499 22 42.1499C22.1 42.1499 22.2 42.1499 22.3 42.0499C22.4 41.9499 22.5 41.9499 22.6 41.8499C22.5 41.7499 22.5 41.7499 22.4 41.6499C22.2 41.6499 22.1 41.6499 22.1 41.7499Z" fill="white"/>
<path d="M24 40.8499L24.1 41.2499L23.5 41.3499C23.5 41.3499 23.4 41.3499 23.4 41.4499V41.5499C23.4 41.5499 23.4 41.6499 23.5 41.6499C23.5 41.6499 23.6 41.6499 23.6 41.7499L23.7 41.6499C23.8 41.6499 23.8 41.6499 23.9 41.5499L24.1 41.7499H23.9C23.8 41.7499 23.8 41.7499 23.7 41.8499V41.9499C23.7 41.9499 23.7 42.0499 23.8 42.0499H23.9C24 42.0499 24.2 41.9499 24.3 41.8499C24.4 41.7499 24.5 41.6499 24.6 41.4499L24.5 40.6499L24 40.8499Z" fill="white"/>
<path d="M36.8 37.65C36.7 37.35 36.5 37.15 36.4 36.85C36.7 36.65 36.9 36.45 37.2 36.25C38 35.55 37.5 34.55 37.1 33.75V33.65C36.9 33.25 36.9 32.85 37 32.45C37.1 32.15 37 31.85 36.9 31.55C36.7 31.35 36.4 31.25 35.8 31.35C34.6 31.45 33.9 32.45 33.7 34.15L33.3 34.25C32.5 34.55 31.7 34.85 30.8 35.05L30.4 35.25C30.3 35.25 30.2 35.35 30.1 35.35C29.6 35.65 30 36.85 30.1 37.35C28 38.85 23.9 39.85 19.4 39.85H18.4C13.9 39.85 9.9 38.85 7.7 37.35C7.8 36.85 8.2 35.65 7.7 35.35C7.7 35.25 7.6 35.25 7.5 35.25L7.1 35.15C6.3 34.95 5.4 34.65 4.6 34.35L4.3 34.25C4.1 32.55 3.4 31.55 2.2 31.45C1.6 31.45 1.3 31.45 1.1 31.65C0.899999 31.85 0.899999 32.15 0.999999 32.55C1.1 32.95 0.999999 33.35 0.799999 33.75L0.699999 33.95C0.299999 34.75 -0.200001 35.65 0.599999 36.45C0.799999 36.65 1.1 36.85 1.4 37.05C1.3 37.35 1.2 37.55 0.999999 37.85C0.699999 38.35 0.499999 38.75 0.399999 39.35C0.399999 39.55 0.199999 41.15 0.599999 41.25C0.699999 41.25 0.799999 41.25 0.899999 41.05C1.2 40.25 1.7 39.55 2.1 39.45C2.2 39.45 2.3 39.55 2.4 39.65C2.5 39.85 2.6 39.95 2.6 40.15C2.7 40.45 2.7 40.55 2.9 40.45C3.1 40.45 3.1 40.35 3.1 40.25C3.1 39.45 3.3 38.75 3.6 38.05C4.1 38.25 4.7 38.45 5.2 38.55C5 38.75 4.8 38.95 4.8 38.95C4.6 39.15 4.6 39.35 4.6 39.55C4.6 39.75 4.7 39.95 4.9 40.05C8 42.25 13.1 43.55 18.5 43.55H19.5C24.9 43.55 30 42.25 33.1 40.05C33.3 39.95 33.4 39.75 33.4 39.55C33.4 39.35 33.3 39.05 33.2 38.95C33.2 38.95 33 38.75 32.8 38.55C33.3 38.45 33.9 38.25 34.4 38.05C34.7 38.75 34.8 39.55 34.9 40.25C34.9 40.35 34.9 40.55 35 40.55C35.1 40.55 35.2 40.45 35.3 40.25C35.4 40.05 35.4 39.95 35.5 39.75C35.6 39.55 35.7 39.55 35.8 39.55C36.2 39.55 36.7 40.25 37.1 40.95C37.2 41.15 37.3 41.15 37.4 41.15C37.7 41.05 37.6 39.45 37.6 39.25C37.3 38.65 37.1 38.15 36.8 37.65ZM2.8 39.85C2.8 39.75 2.7 39.65 2.6 39.55C2.6 39.35 2.4 39.15 2.1 39.25C1.6 39.25 0.999999 40.15 0.699999 40.75C0.599999 40.25 0.599999 39.75 0.699999 39.25C0.799999 38.75 0.999999 38.25 1.3 37.85C1.4 37.55 1.6 37.35 1.7 37.05C2.2 37.35 2.8 37.65 3.3 37.95C3.1 38.55 2.9 39.15 2.8 39.85ZM1.8 31.75C1.8 31.75 1.8 31.55 2.1 31.55C3.4 31.65 3.8 32.85 3.9 33.95C2.6 33.15 1.8 32.15 1.8 31.75ZM7.6 36.75C7.6 36.85 7.5 36.95 7.5 37.05L7.4 36.95C7.1 36.75 7 36.55 7 36.35C7.1 36.35 7.2 36.25 7.4 36.25H7.6H7.8M9.1 40.55C9.1 40.45 9 40.35 9.1 40.25C9.1 40.25 9.1 40.25 9.2 40.25H9.3H9.4L9.6 39.75L9.3 39.65L9 39.55L8.4 41.05L8.1 40.75L8.3 40.25H8.2H8.1V40.15L8 40.05C8 40.15 8 40.15 8 40.25C8 40.35 7.9 40.45 7.8 40.45C7.7 40.45 7.6 40.45 7.5 40.45C7.3 40.35 7.2 40.25 7.2 40.05C7.1 39.75 7.1 39.55 7.1 39.35H7.2C7.2 39.55 7.2 39.75 7.3 39.85C7.4 39.95 7.5 40.05 7.6 40.15C7.7 40.15 7.7 40.15 7.8 40.15C7.9 40.15 7.9 40.05 7.9 40.05V39.95V39.85C7.8 39.85 7.7 39.85 7.5 39.85V39.55C7.6 39.55 7.7 39.55 7.9 39.55C8 39.55 8.1 39.45 8.1 39.45V39.35C8.1 39.25 8 39.25 7.9 39.25C7.8 39.25 7.7 39.15 7.6 39.15C7.5 39.15 7.4 39.15 7.3 39.25V38.95C7.4 38.95 7.5 38.95 7.6 38.95C7.7 38.95 7.8 38.95 7.9 38.95C8 38.95 8.1 39.05 8.1 39.25C8.1 39.35 8.1 39.55 8.1 39.65L8 39.75H7.9C7.9 39.85 8 39.85 8 39.95H8.1C8.2 39.95 8.2 39.95 8.3 39.95C8.4 39.95 8.4 39.95 8.5 39.85L8.7 39.25H8.5L8.4 38.95L9.2 39.25L10.9 39.85L12.6 40.25L12.7 40.55H12.4L12 42.15L11.8 41.85L12 40.95L11.4 40.85H11.3C11.3 40.85 11.2 40.95 11.2 41.05C11.2 41.15 11.2 41.25 11.2 41.45C11.2 41.55 11.3 41.75 11.4 41.85L11.3 41.95C11.2 41.75 11.1 41.55 11 41.35C11 41.25 10.9 41.05 11 40.95C11 40.85 11.1 40.75 11.2 40.75C11.3 40.65 11.4 40.65 11.5 40.65L12.2 40.85L12.3 40.55L11.2 40.25L11 40.15L10.5 41.55L10.6 41.75L10.1 41.65C10 41.65 10 41.65 9.9 41.65C9.8 41.65 9.8 41.75 9.8 41.85V41.95L9.9 42.05C10 42.05 10.1 42.05 10.1 42.05C10.2 42.05 10.3 42.05 10.3 41.95L10.4 42.25C10.3 42.25 10.2 42.25 10.2 42.25C10.1 42.25 10 42.25 9.9 42.25C9.8 42.25 9.7 42.15 9.7 41.95C9.7 41.85 9.7 41.65 9.7 41.55C9.7 41.45 9.8 41.35 9.9 41.35C10 41.35 10 41.35 10.1 41.35L10.3 40.75L9.7 40.55L9.6 40.75C9.6 40.75 9.6 40.85 9.5 40.85H9.4M19 41.25V42.85L18.7 42.65V42.25C18.6 42.35 18.6 42.35 18.5 42.35C18.4 42.35 18.4 42.45 18.3 42.45C18.1 42.45 18 42.35 17.9 42.25C17.8 42.15 17.7 42.05 17.7 41.85C17.7 41.75 17.8 41.65 17.8 41.55C17.9 41.45 18 41.45 18.1 41.45C18.2 41.45 18.3 41.45 18.4 41.55C18.5 41.65 18.6 41.75 18.7 41.85V41.25H17.5H17.1C17.2 41.35 17.3 41.45 17.3 41.55C17.3 41.65 17.4 41.75 17.4 41.85C17.4 41.95 17.3 42.15 17.3 42.25C17.2 42.35 17.1 42.45 17 42.55L17.4 43.05H17.1L16.8 42.55H16.7C16.6 42.55 16.6 42.45 16.5 42.45C16.4 42.35 16.4 42.35 16.4 42.25C16.4 42.25 16.4 42.15 16.5 42.15H16.6C16.6 42.15 16.7 42.15 16.7 42.25L16.8 42.35C16.9 42.35 16.9 42.25 17 42.25C17.1 42.25 17.1 42.15 17.1 42.05C16.9 42.05 16.8 41.95 16.7 41.85C16.6 41.75 16.5 41.65 16.6 41.55V41.45C16.6 41.45 16.6 41.35 16.7 41.35H16.5H16.2L16 42.95L15.7 42.75L15.8 42.35C15.7 42.45 15.6 42.45 15.6 42.45C15.5 42.45 15.4 42.45 15.4 42.45C15.2 42.45 15.1 42.35 15 42.25C14.9 42.15 14.8 41.95 14.8 41.85C14.8 41.75 14.9 41.65 15 41.55C15.1 41.45 15.2 41.45 15.3 41.45C15.4 41.45 15.5 41.55 15.6 41.55C15.7 41.65 15.8 41.75 15.9 41.85L16 41.15L14.8 40.95H14.6L14.1 42.55L13.8 42.35L14.1 40.95L13.8 40.85L13.6 40.55L14.2 40.65C14.2 40.55 14.1 40.45 14.1 40.45V40.35C14.1 40.15 14.2 40.05 14.3 39.95C14.4 39.85 14.6 39.85 14.7 39.85C14.9 39.95 15 40.05 15.1 40.15C15.3 40.35 15.4 40.55 15.5 40.85H15.4C15.3 40.65 15.2 40.45 15.1 40.35C15 40.25 14.9 40.15 14.7 40.15C14.6 40.15 14.4 40.15 14.4 40.25C14.3 40.35 14.2 40.45 14.2 40.55C14.2 40.65 14.2 40.65 14.2 40.75H14.4L16.1 40.95L17.3 41.05H19L19.2 41.25H19ZM30.3 36.25H30.5C30.6 36.25 30.7 36.35 30.8 36.45C30.9 36.65 30.7 36.75 30.4 37.05L30.3 37.15L30.2 36.85C30.2 36.55 30.1 36.45 30.1 36.25C30.2 36.25 30.3 36.25 30.3 36.25ZM30.6 39.85V39.95C30.6 39.95 30.6 40.05 30.5 40.05C30.4 40.05 30.3 40.05 30.1 40.05C30 40.05 29.9 39.95 29.8 39.85C29.8 39.85 29.8 39.85 29.8 39.75C29.8 39.75 29.8 39.65 29.9 39.65L30.1 39.55L29.9 39.05L29.6 39.15H29.5L29 39.35C29.1 39.35 29.1 39.45 29.2 39.45L29.3 39.55V39.65C29.3 39.75 29.3 39.75 29.2 39.85C29.3 39.85 29.5 39.85 29.6 39.85C29.7 39.85 29.8 39.95 29.9 40.05C30 40.15 30 40.35 29.9 40.45C29.8 40.55 29.7 40.75 29.5 40.75C29.3 40.85 29.1 40.75 29 40.65C28.8 40.55 28.7 40.45 28.6 40.25C28.6 40.15 28.6 40.05 28.6 39.95C28.7 39.85 28.7 39.75 28.8 39.75C28.9 39.75 28.9 39.65 29 39.55C29 39.45 29 39.45 29 39.35C29 39.35 29 39.25 28.9 39.25L28.8 39.15L28.1 39.65L27.9 39.75L28.4 41.35L28 41.25L27.5 39.85L27.3 39.95L27.1 40.05L27.6 41.65L27.3 41.55V41.25C27.3 41.25 27.3 41.35 27.2 41.35L27.1 41.45C26.9 41.45 26.8 41.45 26.6 41.45C26.5 41.45 26.4 41.35 26.3 41.15L26.1 40.55L25.9 40.65L25.7 40.75L26.1 42.35L25.8 42.25L25.4 40.75L25.2 40.85L24.9 40.95L25.2 42.55L24.9 42.45L24.8 42.15C24.7 42.25 24.7 42.35 24.6 42.35C24.4 42.25 24.2 42.25 24.1 42.25C24 42.25 23.8 42.25 23.7 42.15C23.6 42.05 23.5 41.95 23.4 41.85V41.75C23.4 41.75 23.4 41.65 23.5 41.65C23.4 41.65 23.3 41.55 23.3 41.55C23.2 41.55 23.2 41.45 23.2 41.35C23.2 41.25 23.2 41.25 23.3 41.15C23.3 41.05 23.4 41.05 23.5 41.05L23.9 40.95V40.75L23.1 40.85H22.9L23.1 42.45L22.8 42.35V41.95C22.7 42.05 22.7 42.05 22.6 42.15C22.5 42.15 22.5 42.25 22.4 42.25C22.2 42.25 22.1 42.25 22 42.15C21.9 42.05 21.8 41.95 21.7 41.75C21.7 41.65 21.7 41.55 21.8 41.45C21.9 41.35 22 41.35 22.1 41.25C22.2 41.25 22.3 41.25 22.4 41.35C22.5 41.45 22.6 41.45 22.7 41.55L22.6 40.85L21.2 41.25H21V42.95L20.7 42.75L20.6 41.25H20.3L20.1 41.05H20.7C20.7 40.95 20.6 40.95 20.6 40.85V40.75C20.6 40.55 20.6 40.45 20.7 40.35C20.8 40.25 21 40.15 21.1 40.15C21.3 40.15 21.4 40.25 21.6 40.35C21.8 40.55 22 40.65 22.2 40.95H22.1C22 40.75 21.8 40.65 21.7 40.55C21.6 40.45 21.4 40.45 21.3 40.45C21.2 40.45 21.1 40.55 21 40.65C20.9 40.75 20.9 40.85 20.9 40.95C20.9 41.05 20.9 41.05 20.9 41.15H21.1L22.8 40.95L24.7 40.55L25.6 40.35L27.2 39.95L27.7 39.75C27.6 39.65 27.5 39.45 27.4 39.45C27.3 39.35 27.2 39.35 27 39.35C26.9 39.35 26.9 39.45 26.8 39.55C26.8 39.65 26.8 39.75 26.8 39.85C26.8 39.95 26.9 40.05 27 40.05H26.9C26.8 40.05 26.8 39.95 26.7 39.95C26.7 39.85 26.6 39.85 26.6 39.75C26.6 39.65 26.6 39.55 26.6 39.45C26.6 39.35 26.7 39.25 26.8 39.25C27 39.25 27.2 39.25 27.3 39.35C27.5 39.45 27.7 39.65 27.8 39.85L28 39.75L29.5 39.15L31.1 38.45L31.3 38.55L31 38.65L31.7 40.15L31.4 40.05L31.1 39.45L30.6 39.85ZM32.3 40.35L31.8 40.25H31.7H31.6H31.5L31.4 40.35L31.2 40.25L31.3 40.15L31.4 40.05H31.5H31.6L32.3 40.25V40.35ZM33.9 33.95C34 32.85 34.5 31.65 35.7 31.55C36 31.55 36 31.65 36 31.75C36.1 32.15 35.3 33.15 33.9 33.95ZM37.1 40.65C36.8 40.05 36.2 39.25 35.7 39.15C35.5 39.15 35.3 39.25 35.2 39.45C35.1 39.55 35.1 39.65 35 39.75C34.9 39.05 34.8 38.45 34.5 37.75C35.1 37.55 35.6 37.25 36.1 36.85C36.2 37.15 36.3 37.35 36.5 37.65C36.7 38.05 36.9 38.55 37.1 39.05C37.2 39.65 37.2 40.15 37.1 40.65Z" fill="white"/>
</svg>
